<svg width="60" height="30" viewBox="0 0 60 30" fill="none" xmlns="http://www.w3.org/2000/svg">
<path fill-rule="evenodd" clip-rule="evenodd" d="M57.422 13.2267C58.4553 13.1044 59.3454 12.4306 59.7561 11.4599V11.4376C60.1957 10.4623 60.032 9.31598 59.3377 8.50781C56.1243 4.7338 51.7606 2.15957 46.9408 1.19466C47.1667 3.15568 46.8383 5.1415 45.994 6.91994C45.5756 7.76979 44.2104 10.0062 42.7351 10.0062C42.5965 10.0277 42.4554 10.0277 42.3167 10.0062C41.2158 9.67076 41.2158 8.46309 41.2158 6.96467C41.2337 5.19913 41.0189 3.43909 40.5772 1.7314C40.4105 1.16562 40.2045 0.612579 39.9607 0.0764362C38.1565 -0.0254787 36.3481 -0.0254787 34.5439 0.0764362C35.304 2.45207 35.1546 5.03139 34.1255 7.30014C33.7292 8.08289 32.43 10.4982 30.9327 10.4982H30.5584C29.4794 10.1851 29.3473 8.99983 29.3473 7.47905C29.3216 5.71321 29.0548 3.95954 28.5546 2.26815C28.3886 1.7779 28.19 1.29968 27.9601 0.836826C26.0855 1.15035 24.2322 1.58358 22.4112 2.13396C23.2963 4.57536 23.2094 7.27102 22.169 9.6484C21.7727 10.4312 20.4515 12.8241 18.9762 12.8241L18.5798 12.9583C17.5009 12.6676 17.3688 11.4375 17.3688 9.91677C17.3334 8.15911 17.0668 6.41414 16.5761 4.72823V4.48222C11.67 6.49136 7.59522 10.1561 5.03792 14.8593C4.5375 16.0577 4.93262 17.4483 5.98475 18.1916C8.2711 16.8206 10.7105 15.732 13.2512 14.9488C14.746 14.4623 16.2681 14.0665 17.8092 13.7634C20.2755 13.2445 22.7793 12.9303 25.2958 12.8241H27.2555H30.2061C32.675 12.9204 35.1334 13.2044 37.5606 13.674C39.1472 13.9865 40.7135 14.3973 42.2507 14.904L57.422 13.2267ZM32.9145 0.232987L31.0428 0.389538L29.8978 0.590817C30.0771 0.988088 30.2243 1.39945 30.3382 1.82086C30.8918 3.64027 31.1883 5.53027 31.219 7.43432V8.86564C31.8484 8.20965 32.3689 7.45437 32.7603 6.6292C33.6927 4.61346 33.7486 2.29265 32.9145 0.232987ZM43.0654 8.61964C43.7228 7.9778 44.26 7.22002 44.6508 6.3832C45.4604 4.754 45.7307 2.90292 45.4215 1.1052C44.2324 0.85919 43.1755 0.680275 42.0305 0.546089C42.1636 0.880933 42.274 1.22466 42.3608 1.57485C42.8481 3.41194 43.0852 5.3082 43.0654 7.21068C43.028 7.67956 43.028 8.15075 43.0654 8.61964ZM20.7598 8.97747C20.408 9.82557 19.8826 10.5879 19.2184 11.2139C19.1895 10.7373 19.1895 10.2592 19.2184 9.78258C19.1764 7.87956 18.8801 5.99115 18.3376 4.16912C18.3035 4.03178 18.2594 3.89721 18.2055 3.76656C19.1523 3.364 20.0992 3.00617 21.068 2.69307C21.8063 4.74401 21.6951 7.01121 20.7598 8.97747ZM55.088 28.5239C55.5811 27.6754 55.5811 26.6217 55.088 25.7731C52.3175 21.5257 48.1869 18.3812 43.3957 16.8721C43.4183 18.8502 42.8752 20.7924 41.8323 22.4632C41.3479 23.1565 39.8506 25.1693 38.4413 25.1693C38.2453 25.2116 38.0428 25.2116 37.8468 25.1693C36.8374 24.7235 36.9433 23.5226 37.0748 22.0312L37.0761 22.0159C37.3166 20.2725 37.3166 18.5036 37.0761 16.7603C36.9705 16.1783 36.8308 15.6033 36.6578 15.0382C34.8751 14.6957 33.0735 14.4642 31.263 14.3449C31.7799 16.7899 31.3544 19.3432 30.074 21.4792C29.6116 22.1948 28.1583 24.2971 26.727 24.2971C26.5523 24.3294 26.3733 24.3294 26.1986 24.2971C25.2859 23.9223 25.298 22.9389 25.3135 21.6687L25.3135 21.6683C25.3156 21.4983 25.3178 21.3232 25.3178 21.1437C25.484 19.3899 25.4099 17.6212 25.0976 15.8881C25.0174 15.5296 24.9021 15.1593 24.7858 14.7857C24.7425 14.6465 24.699 14.5069 24.6572 14.3673C22.7517 14.484 20.8547 14.7155 18.9762 15.0606C19.6804 17.6536 19.3063 20.4265 17.9413 22.7316C17.4789 23.4249 16.0036 25.5271 14.5943 25.5271C14.413 25.5222 14.234 25.4843 14.0659 25.4153C13.1534 25.0604 13.1653 24.0795 13.1808 22.7946C13.1829 22.6223 13.1851 22.4444 13.1851 22.2619C13.3425 20.5145 13.261 18.7534 12.9429 17.0287C12.9532 16.947 12.9532 16.8643 12.9429 16.7826C7.85625 18.1912 3.41093 21.3541 0.369808 25.7284C-0.123269 26.577 -0.123269 27.6307 0.369808 28.4792C0.865684 29.4075 1.81821 29.9897 2.858 30H52.5998C53.6303 29.9988 54.5807 29.435 55.088 28.5239ZM16.5761 21.7699C16.0991 22.5261 15.5042 23.1983 14.8145 23.7603V22.329C14.9913 20.4332 14.9098 18.5217 14.5723 16.6485V16.2235C15.5412 15.9328 16.532 15.6868 17.5229 15.4631C18.0785 17.608 17.7358 19.8907 16.5761 21.7699ZM29.5895 14.412H28.973L26.4187 14.3897C26.5422 14.8016 26.645 15.2196 26.727 15.6421C27.0717 17.5218 27.1606 19.4407 26.9912 21.345V22.7539C27.691 22.1941 28.2874 21.5126 28.7528 20.7411C29.8995 18.8462 30.2035 16.547 29.5895 14.412ZM39.0359 15.7315C39.9827 15.9775 40.9295 16.2459 41.8543 16.5366C42.0122 18.3736 41.5712 20.2124 40.5992 21.7699C40.0995 22.5161 39.482 23.1735 38.7716 23.7156V22.3066C39.0326 20.4149 39.0326 18.4955 38.7716 16.6037C38.7716 16.3414 38.7006 16.0911 38.628 15.8351L38.628 15.8351C38.6016 15.7419 38.5749 15.6481 38.5514 15.5526L39.0359 15.7315Z" fill="url(#paint0_linear_1_872)"/>
<defs>
<linearGradient id="paint0_linear_1_872" x1="0" y1="0" x2="0" y2="30" gradientUnits="userSpaceOnUse">
<stop stop-color="#E573E8"/>
<stop offset="1" stop-color="#C73FCD"/>
</linearGradient>
</defs>
</svg>
