<svg width="28" height="40" viewBox="0 0 28 40" fill="none" xmlns="http://www.w3.org/2000/svg">
<path d="M13.762 9.88631C15.4455 9.91492 16.8335 8.57331 16.8621 6.88974C16.8907 5.20618 15.5491 3.81819 13.8655 3.78959C13.5386 2.74172 14.0051 1.60965 14.9754 1.09637C15.1855 1.02709 15.3355 0.840996 15.3586 0.620915C15.3817 0.400833 15.2735 0.187689 15.0823 0.076355C14.891 -0.0349788 14.6523 -0.0238006 14.4723 0.104914C13.0684 0.825333 12.3591 2.42901 12.7705 3.95236C11.3798 4.44875 10.5448 5.87055 10.7887 7.32692C11.0327 8.78329 12.2854 9.8554 13.762 9.87152V9.88631Z" fill="url(#paint0_linear_1_894)"/>
<path d="M19.2372 28.7536C18.4896 28.3691 17.6023 28.3691 16.8547 28.7536C14.9033 29.6851 12.6354 29.6851 10.684 28.7536C9.9312 28.3689 9.03951 28.3689 8.28673 28.7536C6.50567 29.5961 4.45696 29.671 2.61914 28.9608L4.3209 39.0085C4.43358 39.5822 4.93495 39.9969 5.51953 40H22.0044C22.5889 39.9969 23.0903 39.5822 23.203 39.0085L24.9195 29.0052C23.0816 29.7368 21.0215 29.6671 19.2372 28.8128V28.7536Z" fill="url(#paint1_linear_1_894)"/>
<path d="M24.5497 19.6233C24.2846 19.5197 24.1431 19.2303 24.2241 18.9574C24.3915 18.3249 24.4761 17.6732 24.4757 17.0189C24.3099 12.9466 21.5652 9.43382 17.6539 8.28815C17.0568 9.92258 15.5021 11.0098 13.762 11.0098C12.022 11.0098 10.4673 9.92258 9.87019 8.28815C5.9562 9.42985 3.20963 12.945 3.04836 17.0189C3.04232 17.6726 3.12192 18.3244 3.28513 18.9574C3.3662 19.2303 3.22469 19.5197 2.95958 19.6233C1.22926 20.2832 0.0630325 21.9159 0 23.7667C0.0333636 25.325 0.881478 26.7516 2.23448 27.5254C3.95768 28.5218 6.06129 28.6049 7.85767 27.7474C8.91914 27.2142 10.1701 27.2142 11.2316 27.7474C12.8705 28.5476 14.7868 28.5476 16.4256 27.7474C17.4871 27.2142 18.7381 27.2142 19.7996 27.7474C21.5973 28.6056 23.7035 28.5169 25.4228 27.5106C26.7656 26.7358 27.607 25.3167 27.6424 23.7667C27.5581 21.8823 26.3323 20.2401 24.5497 19.6233Z" fill="url(#paint2_linear_1_894)"/>
<defs>
<linearGradient id="paint0_linear_1_894" x1="10.7466" y1="0" x2="10.7466" y2="9.88676" gradientUnits="userSpaceOnUse">
<stop stop-color="#87C6E7"/>
<stop offset="1" stop-color="#4F94CA"/>
</linearGradient>
<linearGradient id="paint1_linear_1_894" x1="2.61914" y1="28.4651" x2="2.61914" y2="40" gradientUnits="userSpaceOnUse">
<stop stop-color="#87C6E7"/>
<stop offset="1" stop-color="#4F94CA"/>
</linearGradient>
<linearGradient id="paint2_linear_1_894" x1="0" y1="8.28815" x2="0" y2="28.3475" gradientUnits="userSpaceOnUse">
<stop stop-color="#87C6E7"/>
<stop offset="1" stop-color="#4F94CA"/>
</linearGradient>
</defs>
</svg>
