<svg width="19" height="31" viewBox="0 0 19 31" fill="none" xmlns="http://www.w3.org/2000/svg">
<g clip-path="url(#clip0_21_5749)">
<path d="M3.482 7.15084C1.54673 7.14171 -0.0246969 5.49993 -0.000143372 3.5184C0.0244102 1.57562 1.60923 -0.00915049 3.51771 -2.94896e-05C5.45298 0.00909151 7.02441 1.64859 6.99986 3.63013C6.97307 5.5729 5.38825 7.15996 3.482 7.15084Z" fill="#627193"/>
<path d="M3.52234 19.0743C1.58484 19.0857 -0.00667537 17.4622 2.10548e-05 15.4852C0.00671748 13.5378 1.57368 11.9348 3.4777 11.9257C5.4152 11.9143 7.00448 13.5356 7.00002 15.5148C6.99332 17.4599 5.42636 19.0652 3.52234 19.0743Z" fill="#627193"/>
<path d="M3.51566 31C1.58039 31.0068 -0.00889113 29.381 3.74376e-05 27.404C0.00896601 25.459 1.57816 23.8583 3.48441 23.8514C5.42191 23.8446 7.00897 25.4658 7.00004 27.4474C6.99111 29.3924 5.41968 30.9932 3.51566 31Z" fill="#627193"/>
</g>
<g clip-path="url(#clip1_21_5749)">
<path d="M15.482 7.15084C13.5467 7.14171 11.9753 5.49993 11.9999 3.5184C12.0244 1.57562 13.6092 -0.00915049 15.5177 -2.94896e-05C17.453 0.00909151 19.0244 1.64859 18.9999 3.63013C18.9731 5.5729 17.3882 7.15996 15.482 7.15084Z" fill="#627193"/>
<path d="M15.5223 19.0743C13.5848 19.0857 11.9933 17.4622 12 15.4852C12.0067 13.5378 13.5737 11.9348 15.4777 11.9257C17.4152 11.9143 19.0045 13.5356 19 15.5148C18.9933 17.4599 17.4264 19.0652 15.5223 19.0743Z" fill="#627193"/>
<path d="M15.5157 31C13.5804 31.0068 11.9911 29.381 12 27.404C12.009 25.459 13.5782 23.8583 15.4844 23.8514C17.4219 23.8446 19.009 25.4658 19 27.4474C18.9911 29.3924 17.4197 30.9932 15.5157 31Z" fill="#627193"/>
</g>
<defs>
<clipPath id="clip0_21_5749">
<rect width="7" height="31" fill="white"/>
</clipPath>
<clipPath id="clip1_21_5749">
<rect width="7" height="31" fill="white" transform="translate(12)"/>
</clipPath>
</defs>
</svg>
