<svg width="23" height="19" viewBox="0 0 23 19" fill="none" xmlns="http://www.w3.org/2000/svg">
<path d="M11.492 17.9815C9.78535 17.9815 8.07585 18.0381 6.3736 17.9589C5.40295 17.9136 4.39029 17.7862 3.48773 17.4537C1.41895 16.6937 0.48307 15.0266 0.115093 12.9844C-0.441218 9.89646 1.04807 7.00944 3.95712 5.95087C4.93211 5.59707 5.36238 5.10599 5.7463 4.20309C7.53982 -0.0142215 11.7831 -0.61993 14.5299 0.482515C16.7914 1.38966 18.0069 3.20396 18.5922 5.41451C18.837 6.34005 19.176 6.89764 20.1148 7.37881C22.2806 8.48833 23.1368 10.4682 22.9833 12.7962C22.7775 15.9054 20.6856 17.8273 17.4187 17.9433C15.4455 18.0141 13.468 17.9561 11.492 17.9561C11.492 17.9646 11.492 17.973 11.492 17.9815ZM11.4499 15.737C11.4499 15.7384 11.4499 15.7413 11.4499 15.7427C13.1928 15.7427 14.9356 15.7724 16.6769 15.7285C17.3665 15.7101 18.075 15.5983 18.7341 15.4016C19.7294 15.1058 20.3987 14.4223 20.5769 13.3977C20.6725 12.8514 20.7117 12.2754 20.645 11.7277C20.4712 10.2687 19.2818 9.0813 18.0054 9.00347C17.0609 8.94545 16.7233 8.59164 16.6755 7.6477C16.6147 6.4745 16.2974 5.36781 15.6831 4.3531C14.6125 2.5841 12.7538 1.84536 10.7415 2.44965C8.70025 3.06244 7.75713 4.57246 7.43841 6.5311C7.30658 7.34343 6.98351 7.66185 6.14615 7.72412C5.93173 7.73969 5.71298 7.74111 5.50436 7.78922C3.98175 8.13878 2.88796 9.03602 2.48231 10.4923C2.06218 12.0037 2.25197 13.5067 3.36604 14.7421C4.04984 15.5007 5.01324 15.7186 6.00707 15.7299C7.82232 15.7526 9.63613 15.737 11.4499 15.737Z" fill="white"/>
<path d="M10.3489 10.0932C10.3489 9.12376 10.33 8.26615 10.3547 7.40853C10.3808 6.51554 11.1399 5.97493 11.9193 6.27637C12.4524 6.48299 12.6611 6.90897 12.6654 7.44533C12.6712 8.12887 12.6654 8.81242 12.6683 9.49455C12.6683 9.66296 12.6828 9.82995 12.6929 10.0606C12.9088 9.92618 13.0638 9.81721 13.2304 9.72664C13.7548 9.44077 14.3792 9.56389 14.7226 10.0153C15.0746 10.4781 15.0572 11.115 14.5893 11.4886C13.7838 12.1297 12.9465 12.734 12.096 13.317C11.6484 13.6241 11.1732 13.5293 10.7458 13.2165C10.0418 12.7028 9.33622 12.1905 8.63794 11.6697C8.00919 11.2013 7.8788 10.5701 8.28155 10.0267C8.67126 9.50021 9.34347 9.43511 9.99539 9.86108C10.0809 9.91769 10.1663 9.9743 10.3489 10.0932Z" fill="white"/>
</svg>
