<svg width="32" height="41" viewBox="0 0 32 41" fill="none" xmlns="http://www.w3.org/2000/svg">
<path fill-rule="evenodd" clip-rule="evenodd" d="M13.9965 0.479981H17.2564C17.5346 0.479867 17.7624 0.70115 17.7704 0.979246V22.0953C17.0727 22.2604 16.3582 22.3442 15.6412 22.3449C14.9193 22.3442 14.1999 22.2604 13.4972 22.0953V0.979246C13.4972 0.703509 13.7208 0.479981 13.9965 0.479981ZM5.0391 0.979246L5.788 5.57543L6.30195 13.549C6.11188 12.9444 5.55534 12.53 4.92162 12.5211H2.54277L0.824709 1.62536C0.789885 1.35412 0.979742 1.10534 1.25055 1.06735L4.46641 0.553402C4.59905 0.532429 4.73454 0.56577 4.8423 0.645899C4.95006 0.726027 5.021 0.846186 5.0391 0.979246ZM31.1918 13.7693C31.1179 13.6745 31.0036 13.6201 30.8834 13.6224H26.3607C26.1507 13.6373 25.9859 13.8085 25.9789 14.0189C25.5687 18.5225 22.2904 22.2425 17.8741 23.2157C13.4578 24.1889 8.91954 22.1914 6.65437 18.2773C5.92303 16.967 5.48231 15.5147 5.36215 14.0189C5.35516 13.8085 5.19036 13.6373 4.98036 13.6224H0.398864C0.28431 13.6258 0.176384 13.6769 0.101114 13.7634C0.0258427 13.8498 -0.00994205 13.9637 0.00238841 14.0776L3.42383 38.4242C3.59835 39.6039 4.61008 40.4783 5.80268 40.48H25.4796C26.6722 40.4783 27.684 39.6039 27.8585 38.4242L31.2799 14.0776C31.3017 13.9667 31.269 13.852 31.1918 13.7693ZM15.6412 35.4139C11.3827 35.4139 8.41649 33.7546 8.41649 32.2568C8.41649 30.759 11.3533 29.1143 15.6412 29.1143C19.929 29.1143 22.8658 30.759 22.8658 32.2274C22.8658 33.6958 19.8996 35.4139 15.6412 35.4139ZM10.9422 2.28615C10.8994 2.01827 10.6701 1.81999 10.3989 1.81625L7.13895 2.02183C6.86662 2.0526 6.66635 2.29164 6.68374 2.56515L6.87463 5.50201L7.66759 17.7781C8.71394 19.5171 10.3032 20.8638 12.1903 21.6107L10.9422 2.28615ZM23.7909 2.21273C23.7056 2.12263 23.5912 2.06544 23.4679 2.0512L20.208 1.81625C19.9293 1.79931 19.6881 2.00794 19.6646 2.28615L18.8717 13.6224V21.7722C20.3822 21.2052 21.7185 20.2536 22.7484 19.0116L22.8218 18.1305L23.9231 2.53578C23.9147 2.41673 23.8684 2.30351 23.7909 2.21273ZM26.8159 1.39041L30.0171 1.83094C30.2953 1.85435 30.5039 2.09558 30.487 2.37425L29.0185 12.4917H26.346C25.5628 12.4907 24.9167 13.1046 24.8776 13.8867C24.7954 14.9009 24.5422 15.8939 24.1287 16.8236L26.2432 1.81625C26.295 1.54742 26.5435 1.36264 26.8159 1.39041Z" fill="url(#paint0_linear_1_850)"/>
<defs>
<linearGradient id="paint0_linear_1_850" x1="0" y1="0.47998" x2="0" y2="40.48" gradientUnits="userSpaceOnUse">
<stop stop-color="#4EA653"/>
<stop offset="1" stop-color="#266D29"/>
</linearGradient>
</defs>
</svg>
