<svg width="17" height="18" viewBox="0 0 17 18" fill="none" xmlns="http://www.w3.org/2000/svg">
<path d="M8.84831 10.6986V8.23955H16.8809C16.9595 8.66812 17 9.17509 17 9.72387C17 11.5688 16.5111 13.8502 14.9355 15.4756C13.4029 17.122 11.4448 18 8.85084 18C4.04291 18 0 13.9599 0 9C0 4.04007 4.04291 0 8.85084 0C11.5107 0 13.4055 1.07666 14.8291 2.47997L13.1471 4.21516C12.1262 3.22735 10.7431 2.45906 8.84831 2.45906C5.33736 2.45906 2.59142 5.37805 2.59142 9C2.59142 12.622 5.33736 15.5409 8.84831 15.5409C11.1256 15.5409 12.4226 14.5976 13.2535 13.7404C13.9273 13.0453 14.3706 12.0523 14.5454 10.696L8.84831 10.6986Z" fill="#8A99B5"/>
</svg>
