<svg width="37" height="37" viewBox="0 0 37 37" fill="none" xmlns="http://www.w3.org/2000/svg">
<path fill-rule="evenodd" clip-rule="evenodd" d="M16.9118 2.15269C19.2724 -0.198846 23.09 -0.198846 25.4506 2.15269V2.13878C25.5669 2.25581 25.631 2.41483 25.6284 2.57978C25.6258 2.74474 25.5567 2.90164 25.4367 3.01492L14.033 14.4325L3.86707 24.5846L2.62935 25.8223C2.5171 25.9352 2.36443 25.9988 2.20519 25.9988C2.04594 25.9988 1.89328 25.9352 1.78103 25.8223C0.641273 24.6939 0 23.1567 0 21.5529C0 19.949 0.641273 18.4118 1.78103 17.2834L16.9118 2.15269ZM28.232 3.64692C29.4434 3.64692 30.6047 4.13025 31.4584 4.98971L31.4167 4.9758C32.2762 5.8295 32.7595 6.99082 32.7595 8.20221C32.7595 9.4136 32.2762 10.5749 31.4167 11.4286L21.209 21.6085L11.057 31.7745C9.24124 33.3009 6.56001 33.1866 4.88085 31.5111C3.2017 29.8355 3.08157 27.1546 4.60413 25.3356L25.0056 4.98971C25.8593 4.13025 27.0206 3.64692 28.232 3.64692ZM33.8157 10.7654C33.9749 10.7654 34.1276 10.8289 34.2398 10.9419C35.3796 12.0702 36.0208 13.6075 36.0208 15.2113C36.0208 16.8151 35.3796 18.3524 34.2398 19.4807L19.1091 34.6254C16.7485 36.9769 12.9308 36.9769 10.5702 34.6254C10.3333 34.3868 10.3333 34.0018 10.5702 33.7632L21.9878 22.3456L32.1538 12.1935L33.3915 10.9419C33.5037 10.8289 33.6564 10.7654 33.8157 10.7654ZM23.8652 12.8193C23.0972 12.8193 22.4745 13.4419 22.4745 14.21C22.3826 16.2114 20.777 17.811 18.7753 17.8953C18.0072 17.8953 17.3846 18.518 17.3846 19.286C17.3648 20.2603 16.9656 21.1883 16.2721 21.8727C15.5843 22.5614 14.6583 22.9597 13.6854 22.9853C12.9173 22.9853 12.2947 23.6079 12.2947 24.376C12.2505 26.3927 10.6261 28.0171 8.60933 28.0613C8.31747 28.0613 8.08087 27.8247 8.08087 27.5328C8.08087 27.241 8.31747 27.0044 8.60933 27.0044C10.0546 26.9479 11.2155 25.7932 11.2795 24.3482C11.3015 23.0494 12.345 21.9997 13.6436 21.9701C15.0941 21.9131 16.2568 20.7504 16.3138 19.2999C16.3432 18.0066 17.3846 16.9652 18.678 16.9358C20.1284 16.8788 21.2911 15.7161 21.3481 14.2656C21.3778 12.967 22.4274 11.9235 23.7262 11.9015C24.4663 11.8978 25.1744 11.5993 25.6938 11.0721C26.2132 10.5448 26.5011 9.83232 26.4937 9.09225C26.4937 8.80039 26.7303 8.56379 27.0221 8.56379C27.314 8.56379 27.5506 8.80039 27.5506 9.09225C27.5286 11.1253 25.8979 12.7744 23.8652 12.8193Z" fill="url(#paint0_linear_1_840)"/>
<defs>
<linearGradient id="paint0_linear_1_840" x1="0" y1="0.389038" x2="0" y2="36.389" gradientUnits="userSpaceOnUse">
<stop stop-color="#E3C8E4"/>
<stop offset="1" stop-color="#C397C5"/>
</linearGradient>
</defs>
</svg>
