<svg width="22" height="41" viewBox="0 0 22 41" fill="none" xmlns="http://www.w3.org/2000/svg">
<path fill-rule="evenodd" clip-rule="evenodd" d="M21.0073 19.1474C21.0075 19.1381 21.0076 19.1288 21.0077 19.1195V19.1783C21.0076 19.168 21.0075 19.1577 21.0073 19.1474ZM20.3605 20.6527C20.7643 20.2542 20.9962 19.7139 21.0073 19.1474C20.986 18.016 20.0986 17.0876 18.9656 17.0186H14.6463C14.428 17.0544 14.2092 16.9579 14.0884 16.7726C13.9675 16.5873 13.9675 16.3481 14.0884 16.1628C14.2092 15.9775 14.428 15.881 14.6463 15.9168H18.6717C20.5752 12.9144 20.6918 9.11356 18.9761 6.00015C17.2603 2.88673 13.9847 0.955278 10.4299 0.960911C10.0433 0.939462 9.65581 0.939462 9.26923 0.960911C5.95024 1.36631 3.07116 3.44576 1.643 6.46906C0.214828 9.49237 0.437207 13.0369 2.23204 15.858H5.17033C5.44021 15.9022 5.63834 16.1354 5.63834 16.4089C5.63834 16.6824 5.44021 16.9156 5.17033 16.9599H1.93822C0.807238 17.0834 -0.0372761 18.0579 0.00126807 19.195C0.0398122 20.332 0.948382 21.2471 2.08513 21.2938H9.28392C10.4361 21.2938 11.3701 22.2278 11.3701 23.38V24.5259C11.3781 25.0719 11.8231 25.5103 12.3691 25.5103C12.6302 25.5103 12.8805 25.4066 13.0651 25.222C13.2497 25.0374 13.3534 24.787 13.3534 24.5259V23.38C13.3528 22.2478 14.2494 21.3187 15.3809 21.2791H18.8187C19.3953 21.283 19.9499 21.0577 20.3605 20.6527ZM10.4152 40.9448C10.7125 40.9448 10.9749 40.7505 11.0616 40.4661L17.1879 22.381H15.3809C14.8324 22.3889 14.3897 22.8316 14.3818 23.38V24.5259C14.2906 25.6144 13.3805 26.4513 12.2883 26.4513C11.1961 26.4513 10.286 25.6144 10.1948 24.5259V23.38C10.1948 22.834 9.75646 22.389 9.21047 22.381H3.64242L9.76874 40.4661C9.85546 40.7505 10.1178 40.9448 10.4152 40.9448Z" fill="url(#paint0_linear_1_888)"/>
<defs>
<linearGradient id="paint0_linear_1_888" x1="0" y1="0.944824" x2="0" y2="40.9448" gradientUnits="userSpaceOnUse">
<stop stop-color="#F7BEBE"/>
<stop offset="1" stop-color="#EB8A89"/>
</linearGradient>
</defs>
</svg>
