<svg width="43" height="33" viewBox="0 0 43 33" fill="none" xmlns="http://www.w3.org/2000/svg">
<path fill-rule="evenodd" clip-rule="evenodd" d="M38.5088 13.2934C38.2774 13.204 38.1238 12.9819 38.1212 12.733C38.147 12.4586 38.147 12.1824 38.1212 11.908C38.1212 5.33913 30.5703 0 21.2984 0C12.0265 0 4.55312 5.33913 4.55312 11.908C4.53677 12.0892 4.53677 12.2716 4.55312 12.4528C4.61458 12.7513 4.44006 13.0478 4.15 13.1377C1.36203 14.0042 -0.373939 16.7892 0.0686724 19.6853C0.511284 22.5814 2.99908 24.7157 5.91755 24.7032C7.72413 24.7081 9.43521 23.8893 10.569 22.4773C10.681 22.3446 10.8454 22.268 11.0187 22.268C11.1919 22.268 11.3564 22.3446 11.4683 22.4773C12.5992 23.893 14.3122 24.7127 16.1198 24.7032C17.2158 24.7212 18.2933 24.4183 19.2208 23.8315C19.8177 23.4754 20.3435 23.0109 20.7712 22.4617C20.8857 22.3332 21.0492 22.2597 21.2209 22.2594C21.3966 22.2569 21.5632 22.3376 21.6705 22.4773C22.0966 23.028 22.6227 23.4928 23.221 23.8471C25.7542 25.3883 29.0332 24.8019 30.8804 22.4773C30.9892 22.3394 31.1549 22.259 31.3301 22.259C31.5053 22.259 31.6709 22.3394 31.7797 22.4773C32.9135 23.8893 34.6246 24.7081 36.4312 24.7032C39.6791 24.6946 42.3075 22.0489 42.3075 18.7881C42.3203 16.3362 40.8013 14.1391 38.5088 13.2934ZM14.0731 9.66648C13.6624 10.1733 12.9314 10.2752 12.3986 9.89997C11.8168 9.62496 11.5409 8.94922 11.7629 8.34337C12.5296 7.08351 13.6373 6.06856 14.9569 5.41696C15.0776 6.88945 14.7707 8.36551 14.0731 9.66648ZM21.1589 10.415C21.7842 10.415 22.3313 9.99289 22.4923 9.38629C22.449 7.9069 21.9864 6.47056 21.1589 5.24574C20.3313 6.47056 19.8687 7.9069 19.8254 9.38629C19.9864 9.99289 20.5336 10.415 21.1589 10.415ZM29.9191 9.89997C29.3864 10.2752 28.6553 10.1733 28.2446 9.66648C27.5471 8.36551 27.2401 6.88945 27.3608 5.41696C28.6861 6.06613 29.7995 7.0813 30.5703 8.34337C30.7902 8.95332 30.5069 9.63057 29.9191 9.89997ZM31.3146 23.7226C32.6511 25.099 34.4855 25.8738 36.4002 25.8707C37.1613 25.8579 37.9153 25.7212 38.6329 25.466L37.9817 30.4004C37.7859 31.8974 36.5086 33.0127 35.0047 32.9999H7.39052C5.8866 33.0127 4.60935 31.8974 4.41358 30.4004L3.76237 25.466C4.47991 25.7212 5.23394 25.8579 5.99508 25.8707C7.90974 25.8738 9.74419 25.099 11.0807 23.7226C12.4124 25.0966 14.2411 25.8714 16.1508 25.8707C17.4372 25.8775 18.6997 25.5216 19.7944 24.8433C20.3268 24.5357 20.8124 24.1531 21.2364 23.707C21.6687 24.1611 22.1649 24.5492 22.7094 24.8589C23.7761 25.508 24.9971 25.8575 26.2445 25.8707C28.1541 25.8714 29.9828 25.0966 31.3146 23.7226Z" fill="url(#paint0_linear_1_863)"/>
<defs>
<linearGradient id="paint0_linear_1_863" x1="0" y1="0" x2="0" y2="33" gradientUnits="userSpaceOnUse">
<stop stop-color="#61E4FF"/>
<stop offset="1" stop-color="#32C5FF"/>
</linearGradient>
</defs>
</svg>
