<svg width="42" height="40" viewBox="0 0 42 40" fill="none" xmlns="http://www.w3.org/2000/svg">
<path fill-rule="evenodd" clip-rule="evenodd" d="M30.915 20.1325C29.5433 21.3114 27.581 21.5073 26.0033 20.6228C24.4256 19.7384 23.5689 17.9622 23.8588 16.1769C24.1487 14.3916 25.5236 12.9778 27.3001 12.6381L21.334 0.441377C21.2064 0.168124 20.9301 -0.00457004 20.6286 0.000531091C20.3183 -0.00794711 20.0338 0.172083 19.9086 0.456072L15.8234 8.75868H15.9703C18.0217 8.73874 19.8042 10.1641 20.2359 12.1696C20.6676 14.1751 19.6294 16.2077 17.7515 17.0335C15.8736 17.8594 13.6739 17.2507 12.4876 15.5771L5.36063 30.1544L5.93373 30.272C10.6823 31.8197 15.6349 32.6517 20.6286 32.7407C22.245 32.7407 23.8174 32.6085 25.3016 32.4468C28.8454 32.0861 32.3421 31.3572 35.7349 30.272H35.8966L30.915 20.1325ZM15.2503 9.93427C15.4855 9.87417 15.7275 9.84454 15.9703 9.8461H15.9997C17.5986 9.85195 18.9507 11.0308 19.1744 12.6139C19.3982 14.197 18.4257 15.7044 16.8911 16.1531C15.3565 16.6018 13.7251 15.8558 13.0607 14.4015L13.8543 12.7851L15.2503 9.93427ZM37.1309 30.9185C38.5298 30.3935 40.1025 30.9677 40.8341 32.2705C41.2663 33.0614 41.3255 34.0033 40.9957 34.8421C40.6974 35.692 40.0258 36.3581 39.1735 36.6495C33.2191 38.782 26.9528 39.9141 20.6286 40C14.2803 39.9163 7.98943 38.7842 2.0102 36.6495C1.15793 36.3581 0.486361 35.692 0.188035 34.8421C-0.156598 33.903 -0.0222712 32.8549 0.548048 32.033C1.11837 31.2112 2.05321 30.7186 3.05354 30.7128C3.50355 30.7194 3.9479 30.8143 4.36138 30.992C5.52227 31.4035 6.99176 31.8443 8.46125 32.2558C9.40172 32.5056 10.3275 32.726 11.268 32.917C14.3493 33.5507 17.4832 33.8951 20.6286 33.9457C23.2598 33.9128 25.8841 33.6671 28.4757 33.2109C31.3059 32.7146 34.0884 31.9772 36.793 31.0067L37.1309 30.9185ZM13.9865 26.3925C13.9865 28.7786 15.9208 30.7128 18.3068 30.7128H18.3656C20.7286 30.6807 22.6273 28.7558 22.6271 26.3925C22.6271 24.0065 20.6928 22.0722 18.3068 22.0722C15.9208 22.0722 13.9865 24.0065 13.9865 26.3925ZM18.3068 23.189C17.0038 23.1891 15.8295 23.9747 15.3322 25.1791C14.835 26.3834 15.113 27.7688 16.0365 28.688C16.9599 29.6072 18.3465 29.8789 19.5486 29.3762C20.7506 28.8734 21.5309 27.6955 21.525 26.3925C21.5173 24.6436 20.1142 23.221 18.3656 23.189H18.3068ZM25.2413 17.014C25.1236 15.4249 26.1866 13.9888 27.7409 13.6374L30.4742 19.0451C29.878 19.6517 29.0616 19.991 28.2112 19.9856C26.622 19.867 25.359 18.6032 25.2413 17.014Z" fill="url(#paint0_linear_1_817)"/>
<defs>
<linearGradient id="paint0_linear_1_817" x1="0" y1="0.000244141" x2="0" y2="40" gradientUnits="userSpaceOnUse">
<stop stop-color="#DB9C9B"/>
<stop offset="1" stop-color="#B56362"/>
</linearGradient>
</defs>
</svg>
