<svg width="18" height="16" viewBox="0 0 18 16" fill="none" xmlns="http://www.w3.org/2000/svg">
<path d="M5.6608 16C12.4536 16 16.1683 9.84496 16.1683 4.50754C16.1683 4.33273 16.1651 4.15872 16.1579 3.98543C16.8806 3.41344 17.5044 2.70518 18 1.89385C17.3383 2.21558 16.6262 2.43214 15.8793 2.52978C16.6417 2.02968 17.227 1.2387 17.5032 0.295702C16.7782 0.766094 15.9852 1.09767 15.1582 1.27616C14.4842 0.491052 13.5249 0 12.4625 0C10.4231 0 8.76927 1.80889 8.76927 4.03861C8.76927 4.35559 8.8017 4.66391 8.86506 4.95961C5.79574 4.79069 3.07409 3.18342 1.25261 0.739452C0.924554 1.35582 0.751987 2.0564 0.752547 2.76959C0.752547 4.17094 1.40452 5.40805 2.39596 6.13178C1.80952 6.11221 1.23594 5.93896 0.723433 5.62659C0.72289 5.64357 0.72289 5.66009 0.72289 5.67819C0.72289 7.63434 1.99586 9.26757 3.68566 9.63766C3.36829 9.73221 3.0408 9.78002 2.71186 9.77983C2.47891 9.77965 2.24651 9.75525 2.01778 9.70696C2.48795 11.3118 3.85128 12.4797 5.46764 12.5124C4.20367 13.5959 2.61141 14.2413 0.880901 14.2413C0.58318 14.2413 0.289083 14.2228 0 14.1854C1.63441 15.3312 3.57513 15.9998 5.66098 15.9998" fill="#8A99B5"/>
</svg>
